<svg width="114" height="26" viewBox="0 0 114 26" fill="none" xmlns="http://www.w3.org/2000/svg">
<path d="M41.544 5.76479H39.6199C39.5493 5.76473 39.4803 5.78638 39.4224 5.8268C39.3644 5.86721 39.3203 5.92445 39.2959 5.99077L36.2302 14.3649L33.1444 5.98986C33.1199 5.92371 33.0757 5.86667 33.0178 5.82642C32.9599 5.78618 32.891 5.76467 32.8204 5.76479H30.8955C30.8394 5.7648 30.7841 5.77849 30.7345 5.80468C30.6849 5.83087 30.6424 5.86876 30.6108 5.91508C30.5791 5.96139 30.5593 6.01473 30.5529 6.07046C30.5465 6.12619 30.5538 6.18264 30.5742 6.23491L34.7191 16.8616C34.7443 16.9263 34.7884 16.9819 34.8458 17.0211C34.9031 17.0603 34.9709 17.0812 35.0403 17.0812H37.4C37.4695 17.0812 37.5373 17.0603 37.5946 17.0211C37.6519 16.9819 37.6961 16.9263 37.7213 16.8616L41.8662 6.23491C41.8866 6.18243 41.8939 6.12573 41.8874 6.06978C41.8809 6.01383 41.8608 5.96033 41.8288 5.91395C41.7968 5.86757 41.754 5.82972 41.704 5.80372C41.6541 5.77772 41.5985 5.76435 41.5422 5.76479H41.544Z" fill="white"/>
<path d="M61.534 5.47073C60.8475 5.42574 60.1614 5.56326 59.5453 5.86931C58.9292 6.17537 58.4051 6.63906 58.0262 7.21326V6.11057C58.0262 6.0191 57.9899 5.93138 57.9252 5.8667C57.8605 5.80203 57.7728 5.76569 57.6813 5.76569H55.927C55.8356 5.76569 55.7478 5.80203 55.6832 5.8667C55.6185 5.93138 55.5822 6.0191 55.5822 6.11057V16.7364C55.5822 16.7817 55.5911 16.8265 55.6084 16.8684C55.6257 16.9102 55.6511 16.9482 55.6832 16.9802C55.7152 17.0123 55.7532 17.0377 55.7951 17.055C55.8369 17.0723 55.8817 17.0812 55.927 17.0812H57.6832C57.7285 17.0812 57.7733 17.0723 57.8152 17.055C57.857 17.0377 57.895 17.0123 57.927 16.9802C57.9591 16.9482 57.9845 16.9102 58.0018 16.8684C58.0191 16.8265 58.0281 16.7817 58.0281 16.7364V11.0187C58.0281 8.70984 59.2987 7.75962 60.9041 7.75962C61.2521 7.73135 61.602 7.78064 61.9286 7.90393C62.2552 8.02722 62.5504 8.22145 62.7928 8.4726C63.0353 8.72375 63.219 9.02558 63.3308 9.35632C63.4425 9.68706 63.4795 10.0385 63.439 10.3852V16.7382C63.439 16.7835 63.4479 16.8283 63.4652 16.8702C63.4825 16.912 63.508 16.95 63.54 16.9821C63.572 17.0141 63.61 17.0395 63.6519 17.0568C63.6937 17.0741 63.7385 17.0831 63.7838 17.0831H65.5382C65.5835 17.0831 65.6283 17.0741 65.6701 17.0568C65.712 17.0395 65.75 17.0141 65.782 16.9821C65.8141 16.95 65.8395 16.912 65.8568 16.8702C65.8741 16.8283 65.8831 16.7835 65.8831 16.7382V10.1329C65.8803 7.19148 64.0688 5.47073 61.534 5.47073Z" fill="white"/>
<path d="M106.985 5.47073C106.195 5.44248 105.407 5.57693 104.671 5.86573C103.935 6.15453 103.266 6.59152 102.705 7.1496C102.145 7.70768 101.705 8.37494 101.414 9.10997C101.122 9.84501 100.985 10.6322 101.01 11.4226C101.058 12.6658 101.48 13.8655 102.22 14.8657C102.96 15.8658 103.984 16.6199 105.158 17.0298C106.333 17.4397 107.604 17.4863 108.806 17.1636C110.007 16.841 111.084 16.1639 111.895 15.2207C111.925 15.182 111.946 15.1374 111.957 15.0899C111.968 15.0423 111.969 14.993 111.959 14.9452C111.949 14.8973 111.93 14.8521 111.901 14.8124C111.873 14.7728 111.836 14.7396 111.794 14.7152L110.372 13.8803C110.302 13.8393 110.22 13.8244 110.141 13.838C110.061 13.8516 109.989 13.8929 109.936 13.9547C109.593 14.3405 109.169 14.6461 108.695 14.85C108.22 15.0539 107.706 15.151 107.19 15.1345C106.365 15.206 105.543 14.9743 104.877 14.4827C104.211 13.9912 103.747 13.2736 103.572 12.4644H112.278C112.362 12.4644 112.443 12.4336 112.506 12.3777C112.57 12.3219 112.61 12.2449 112.62 12.1613C112.651 11.9241 112.668 11.6853 112.67 11.4462C112.705 10.6768 112.584 9.90836 112.315 9.18696C112.045 8.46555 111.633 7.80612 111.102 7.24833C110.571 6.69054 109.932 6.24592 109.225 5.94122C108.518 5.63651 107.756 5.47802 106.986 5.47527L106.985 5.47073ZM103.544 10.4723C103.669 9.66776 104.087 8.93778 104.718 8.42362C105.349 7.90945 106.148 7.64764 106.961 7.68883C107.752 7.66165 108.524 7.93287 109.123 8.44859C109.723 8.9643 110.106 9.68675 110.198 10.4723H103.544Z" fill="white"/>
<path d="M53.2025 5.76478H51.4482C51.3568 5.76478 51.269 5.80112 51.2044 5.86579C51.1397 5.93047 51.1034 6.01819 51.1034 6.10966V6.37467C50.1407 5.78075 49.0308 5.46854 47.8996 5.47345C46.3209 5.47345 44.8068 6.10062 43.6904 7.21697C42.5741 8.33333 41.9469 9.84743 41.9469 11.4262C41.9469 13.005 42.5741 14.5191 43.6904 15.6354C44.8068 16.7518 46.3209 17.3789 47.8996 17.3789C49.0316 17.3831 50.1418 17.0685 51.1034 16.4714V16.7382C51.1034 16.8297 51.1397 16.9174 51.2044 16.9821C51.269 17.0467 51.3568 17.0831 51.4482 17.0831H53.2025C53.294 17.0831 53.3817 17.0467 53.4464 16.9821C53.5111 16.9174 53.5474 16.8297 53.5474 16.7382V6.10966C53.5474 6.01819 53.5111 5.93047 53.4464 5.86579C53.3817 5.80112 53.294 5.76478 53.2025 5.76478ZM51.1024 12.9809C50.7503 13.71 50.1611 14.298 49.4313 14.6487C48.7014 14.9995 47.8742 15.0921 47.0848 14.9115C46.2955 14.7308 45.5909 14.2876 45.0862 13.6544C44.5815 13.0212 44.3067 12.2355 44.3067 11.4257C44.3067 10.616 44.5815 9.83025 45.0862 9.19704C45.5909 8.56382 46.2955 8.12065 47.0848 7.94002C47.8742 7.7594 48.7014 7.85202 49.4313 8.20273C50.1611 8.55344 50.7503 9.14148 51.1024 9.87062V12.9809Z" fill="white"/>
<path d="M85.8849 5.76478H84.1306C84.0391 5.76478 83.9514 5.80112 83.8868 5.86579C83.8221 5.93047 83.7857 6.01819 83.7857 6.10966V6.37467C82.823 5.78075 81.7132 5.46854 80.582 5.47345C79.0033 5.47345 77.4891 6.10062 76.3728 7.21697C75.2564 8.33333 74.6293 9.84743 74.6293 11.4262C74.6293 13.005 75.2564 14.5191 76.3728 15.6354C77.4891 16.7518 79.0033 17.3789 80.582 17.3789C81.7139 17.3831 82.8242 17.0685 83.7857 16.4714V16.7382C83.7857 16.8297 83.8221 16.9174 83.8868 16.9821C83.9514 17.0467 84.0391 17.0831 84.1306 17.0831H85.8849C85.9764 17.0831 86.0641 17.0467 86.1288 16.9821C86.1935 16.9174 86.2298 16.8297 86.2298 16.7382V6.10966C86.2298 6.01819 86.1935 5.93047 86.1288 5.86579C86.0641 5.80112 85.9764 5.76478 85.8849 5.76478ZM83.7848 12.9809C83.4327 13.71 82.8435 14.298 82.1136 14.6487C81.3838 14.9995 80.5565 15.0921 79.7672 14.9115C78.9779 14.7308 78.2732 14.2876 77.7686 13.6544C77.2639 13.0212 76.9891 12.2355 76.9891 11.4257C76.9891 10.616 77.2639 9.83025 77.7686 9.19704C78.2732 8.56382 78.9779 8.12065 79.7672 7.94002C80.5565 7.7594 81.3838 7.85202 82.1136 8.20273C82.8435 8.55344 83.4327 9.14148 83.7848 9.87062V12.9809Z" fill="white"/>
<path d="M99.0837 5.76479H97.3303C97.2388 5.76479 97.1511 5.80112 97.0865 5.8658C97.0218 5.93048 96.9855 6.0182 96.9855 6.10966V6.37014C96.0232 5.77687 94.914 5.46498 93.7835 5.46983C92.2048 5.46983 90.6907 6.09699 89.5743 7.21334C88.458 8.3297 87.8308 9.8438 87.8308 11.4226C87.8308 13.0013 88.458 14.5154 89.5743 15.6318C90.6907 16.7481 92.2048 17.3753 93.7835 17.3753C94.9148 17.3791 96.0244 17.0646 96.9855 16.4677V16.5893C96.9855 18.5969 95.6931 19.774 93.5467 19.774C91.7406 19.774 90.8684 19.1387 90.3411 18.2892C90.294 18.2135 90.2193 18.1591 90.1327 18.1374C90.0462 18.1157 89.9547 18.1285 89.8774 18.1731L88.329 19.0725C88.2888 19.096 88.2538 19.1275 88.226 19.1649C88.1982 19.2023 88.1782 19.245 88.1673 19.2903C88.1563 19.3357 88.1547 19.3827 88.1623 19.4287C88.17 19.4747 88.1869 19.5187 88.212 19.558C89.233 21.198 91.1116 22.0375 93.5004 22.0375C96.5235 22.0375 99.4313 20.3067 99.4313 16.5921V6.10876C99.4312 6.06339 99.4222 6.01849 99.4047 5.97664C99.3872 5.93478 99.3616 5.89679 99.3293 5.86483C99.2971 5.83288 99.259 5.8076 99.217 5.79043C99.175 5.77326 99.13 5.76455 99.0846 5.76479H99.0837ZM96.9818 12.9809C96.629 13.7093 96.0395 14.2965 95.3097 14.6464C94.5798 14.9964 93.7529 15.0884 92.964 14.9074C92.1751 14.7264 91.471 14.2831 90.9667 13.65C90.4624 13.0169 90.1878 12.2315 90.1878 11.4221C90.1878 10.6127 90.4624 9.82729 90.9667 9.1942C91.471 8.56112 92.1751 8.11784 92.964 7.93685C93.7529 7.75585 94.5798 7.84785 95.3097 8.19779C96.0395 8.54774 96.629 9.13493 96.9818 9.86336V12.9809Z" fill="white"/>
<path d="M73.9405 15.0519C73.9083 14.9991 73.8626 14.9559 73.808 14.9268C73.7534 14.8977 73.6919 14.8839 73.6301 14.8867C71.8549 14.9675 70.3629 14.9457 70.3629 13.5508V9.36783L75.1685 5.76751H70.3629V3.31707C70.3629 3.22561 70.3266 3.13789 70.2619 3.07321C70.1972 3.00853 70.1095 2.9722 70.018 2.9722H68.2637C68.1722 2.9722 68.0845 3.00853 68.0198 3.07321C67.9552 3.13789 67.9188 3.22561 67.9188 3.31707V13.5517C67.9188 16.4941 69.9708 17.535 73.7273 17.0822C73.9941 17.0558 74.2836 17.0077 74.5622 16.9533C74.6164 16.9424 74.6673 16.9186 74.7103 16.8839C74.7534 16.8492 74.7875 16.8046 74.8097 16.7539C74.8319 16.7032 74.8415 16.648 74.8378 16.5928C74.834 16.5376 74.817 16.4841 74.7882 16.4369L73.9405 15.0519Z" fill="white"/>
<path d="M0 0H6.96649L17.536 19.5771L14.0673 26L0 0Z" fill="white"/>
<path d="M9.55762 0H28.1201L18.882 17.0804V5.76487L9.55762 0Z" fill="#E35728"/>
</svg>
